<mxfile host="app.diagrams.net" agent="Mozilla/5.0 (Windows NT 10.0; Win64; x64) AppleWebKit/537.36 (KHTML, like Gecko) Chrome/131.0.0.0 Safari/537.36" version="25.0.3">
  <diagram id="GNU3i8hCxYjH3E0Nk9u4" name="Page-1">
    <mxGraphModel dx="1674" dy="756" grid="1" gridSize="10" guides="1" tooltips="1" connect="1" arrows="1" fold="1" page="1" pageScale="1" pageWidth="850" pageHeight="1100" math="0" shadow="0">
      <root>
        <mxCell id="0" />
        <mxCell id="1" parent="0" />
        <mxCell id="FXCXVvDxTQtwc45PbP1s-120" style="edgeStyle=orthogonalEdgeStyle;rounded=0;orthogonalLoop=1;jettySize=auto;html=1;startArrow=block;startFill=1;endArrow=block;endFill=1;" parent="1" source="FXCXVvDxTQtwc45PbP1s-93" target="FXCXVvDxTQtwc45PbP1s-94" edge="1">
          <mxGeometry relative="1" as="geometry" />
        </mxCell>
        <mxCell id="FXCXVvDxTQtwc45PbP1s-121" style="edgeStyle=orthogonalEdgeStyle;rounded=0;orthogonalLoop=1;jettySize=auto;html=1;startArrow=block;startFill=1;endArrow=block;endFill=1;" parent="1" source="FXCXVvDxTQtwc45PbP1s-94" target="FXCXVvDxTQtwc45PbP1s-95" edge="1">
          <mxGeometry relative="1" as="geometry" />
        </mxCell>
        <mxCell id="FXCXVvDxTQtwc45PbP1s-122" style="edgeStyle=orthogonalEdgeStyle;rounded=0;orthogonalLoop=1;jettySize=auto;html=1;endArrow=block;endFill=1;" parent="1" source="FXCXVvDxTQtwc45PbP1s-96" target="FXCXVvDxTQtwc45PbP1s-94" edge="1">
          <mxGeometry relative="1" as="geometry" />
        </mxCell>
        <mxCell id="FXCXVvDxTQtwc45PbP1s-123" style="edgeStyle=orthogonalEdgeStyle;rounded=0;orthogonalLoop=1;jettySize=auto;html=1;startArrow=block;startFill=1;endArrow=block;endFill=1;entryX=1.002;entryY=0.156;entryDx=0;entryDy=0;entryPerimeter=0;" parent="1" source="FXCXVvDxTQtwc45PbP1s-103" target="FXCXVvDxTQtwc45PbP1s-94" edge="1">
          <mxGeometry relative="1" as="geometry">
            <Array as="points">
              <mxPoint x="233.5" y="308.5" />
              <mxPoint x="233.5" y="388.5" />
            </Array>
            <mxPoint x="223.5" y="389.5" as="targetPoint" />
          </mxGeometry>
        </mxCell>
        <mxCell id="FXCXVvDxTQtwc45PbP1s-124" style="edgeStyle=orthogonalEdgeStyle;rounded=0;orthogonalLoop=1;jettySize=auto;html=1;entryX=0.82;entryY=1.023;entryDx=0;entryDy=0;entryPerimeter=0;startArrow=block;startFill=1;" parent="1" target="FXCXVvDxTQtwc45PbP1s-94" edge="1">
          <mxGeometry relative="1" as="geometry">
            <Array as="points">
              <mxPoint x="202.5" y="489.5" />
              <mxPoint x="202.5" y="459.5" />
            </Array>
            <mxPoint x="444" y="490" as="sourcePoint" />
          </mxGeometry>
        </mxCell>
        <mxCell id="FXCXVvDxTQtwc45PbP1s-126" style="edgeStyle=orthogonalEdgeStyle;rounded=0;orthogonalLoop=1;jettySize=auto;html=1;endArrow=none;endFill=0;" parent="1" target="FXCXVvDxTQtwc45PbP1s-103" edge="1">
          <mxGeometry relative="1" as="geometry">
            <Array as="points">
              <mxPoint x="533.5" y="419.5" />
              <mxPoint x="723.5" y="419.5" />
            </Array>
            <mxPoint x="533.5" y="459.5" as="sourcePoint" />
          </mxGeometry>
        </mxCell>
        <mxCell id="FXCXVvDxTQtwc45PbP1s-127" style="edgeStyle=orthogonalEdgeStyle;rounded=0;orthogonalLoop=1;jettySize=auto;html=1;endArrow=none;endFill=0;" parent="1" target="FXCXVvDxTQtwc45PbP1s-103" edge="1">
          <mxGeometry relative="1" as="geometry">
            <Array as="points">
              <mxPoint x="643.5" y="419.5" />
              <mxPoint x="723.5" y="419.5" />
            </Array>
            <mxPoint x="643.5" y="461.5438934497356" as="sourcePoint" />
          </mxGeometry>
        </mxCell>
        <mxCell id="FXCXVvDxTQtwc45PbP1s-128" style="edgeStyle=orthogonalEdgeStyle;rounded=0;orthogonalLoop=1;jettySize=auto;html=1;endArrow=none;endFill=0;" parent="1" target="FXCXVvDxTQtwc45PbP1s-103" edge="1">
          <mxGeometry relative="1" as="geometry">
            <Array as="points">
              <mxPoint x="833.5" y="419.5" />
              <mxPoint x="723.5" y="419.5" />
            </Array>
            <mxPoint x="833.5" y="459.5" as="sourcePoint" />
          </mxGeometry>
        </mxCell>
        <mxCell id="FXCXVvDxTQtwc45PbP1s-129" style="edgeStyle=orthogonalEdgeStyle;rounded=0;orthogonalLoop=1;jettySize=auto;html=1;endArrow=none;endFill=0;" parent="1" target="FXCXVvDxTQtwc45PbP1s-103" edge="1">
          <mxGeometry relative="1" as="geometry">
            <Array as="points">
              <mxPoint x="973.5" y="419.5" />
              <mxPoint x="723.5" y="419.5" />
            </Array>
            <mxPoint x="973.5" y="459.5" as="sourcePoint" />
          </mxGeometry>
        </mxCell>
        <mxCell id="FXCXVvDxTQtwc45PbP1s-130" style="edgeStyle=orthogonalEdgeStyle;rounded=0;orthogonalLoop=1;jettySize=auto;html=1;endArrow=none;endFill=0;" parent="1" source="FXCXVvDxTQtwc45PbP1s-104" edge="1">
          <mxGeometry relative="1" as="geometry">
            <Array as="points">
              <mxPoint x="723.5" y="579.5" />
              <mxPoint x="533.5" y="579.5" />
            </Array>
            <mxPoint x="533.5" y="519.5" as="targetPoint" />
          </mxGeometry>
        </mxCell>
        <mxCell id="FXCXVvDxTQtwc45PbP1s-131" style="edgeStyle=orthogonalEdgeStyle;rounded=0;orthogonalLoop=1;jettySize=auto;html=1;endArrow=none;endFill=0;" parent="1" source="FXCXVvDxTQtwc45PbP1s-104" edge="1">
          <mxGeometry relative="1" as="geometry">
            <Array as="points">
              <mxPoint x="723.5" y="579.5" />
              <mxPoint x="633.5" y="579.5" />
            </Array>
            <mxPoint x="634" y="520" as="targetPoint" />
          </mxGeometry>
        </mxCell>
        <mxCell id="FXCXVvDxTQtwc45PbP1s-132" style="edgeStyle=orthogonalEdgeStyle;rounded=0;orthogonalLoop=1;jettySize=auto;html=1;endArrow=none;endFill=0;" parent="1" source="FXCXVvDxTQtwc45PbP1s-104" edge="1">
          <mxGeometry relative="1" as="geometry">
            <Array as="points">
              <mxPoint x="723.5" y="579.5" />
              <mxPoint x="833.5" y="579.5" />
            </Array>
            <mxPoint x="833.5" y="519.5" as="targetPoint" />
          </mxGeometry>
        </mxCell>
        <mxCell id="FXCXVvDxTQtwc45PbP1s-133" style="edgeStyle=orthogonalEdgeStyle;rounded=0;orthogonalLoop=1;jettySize=auto;html=1;endArrow=none;endFill=0;" parent="1" source="FXCXVvDxTQtwc45PbP1s-104" edge="1">
          <mxGeometry relative="1" as="geometry">
            <Array as="points">
              <mxPoint x="723.5" y="579.5" />
              <mxPoint x="973.5" y="579.5" />
            </Array>
            <mxPoint x="973.5" y="519.5" as="targetPoint" />
          </mxGeometry>
        </mxCell>
        <mxCell id="FXCXVvDxTQtwc45PbP1s-134" style="edgeStyle=orthogonalEdgeStyle;rounded=0;orthogonalLoop=1;jettySize=auto;html=1;startArrow=block;startFill=1;endArrow=block;endFill=1;" parent="1" source="FXCXVvDxTQtwc45PbP1s-95" target="FXCXVvDxTQtwc45PbP1s-97" edge="1">
          <mxGeometry relative="1" as="geometry" />
        </mxCell>
        <mxCell id="FXCXVvDxTQtwc45PbP1s-135" style="edgeStyle=orthogonalEdgeStyle;rounded=0;orthogonalLoop=1;jettySize=auto;html=1;endArrow=none;endFill=0;" parent="1" source="FXCXVvDxTQtwc45PbP1s-105" target="FXCXVvDxTQtwc45PbP1s-104" edge="1">
          <mxGeometry relative="1" as="geometry">
            <Array as="points">
              <mxPoint x="523.5" y="689.5" />
              <mxPoint x="723.5" y="689.5" />
            </Array>
          </mxGeometry>
        </mxCell>
        <mxCell id="FXCXVvDxTQtwc45PbP1s-136" style="edgeStyle=orthogonalEdgeStyle;rounded=0;orthogonalLoop=1;jettySize=auto;html=1;endArrow=none;endFill=0;" parent="1" source="FXCXVvDxTQtwc45PbP1s-106" target="FXCXVvDxTQtwc45PbP1s-104" edge="1">
          <mxGeometry relative="1" as="geometry">
            <Array as="points">
              <mxPoint x="623.5" y="689.5" />
              <mxPoint x="723.5" y="689.5" />
            </Array>
          </mxGeometry>
        </mxCell>
        <mxCell id="FXCXVvDxTQtwc45PbP1s-137" style="edgeStyle=orthogonalEdgeStyle;rounded=0;orthogonalLoop=1;jettySize=auto;html=1;endArrow=none;endFill=0;" parent="1" source="FXCXVvDxTQtwc45PbP1s-107" target="FXCXVvDxTQtwc45PbP1s-104" edge="1">
          <mxGeometry relative="1" as="geometry">
            <Array as="points">
              <mxPoint x="833.5" y="689.5" />
              <mxPoint x="723.5" y="689.5" />
            </Array>
          </mxGeometry>
        </mxCell>
        <mxCell id="FXCXVvDxTQtwc45PbP1s-138" style="edgeStyle=orthogonalEdgeStyle;rounded=0;orthogonalLoop=1;jettySize=auto;html=1;endArrow=none;endFill=0;" parent="1" source="FXCXVvDxTQtwc45PbP1s-108" target="FXCXVvDxTQtwc45PbP1s-104" edge="1">
          <mxGeometry relative="1" as="geometry">
            <Array as="points">
              <mxPoint x="973.5" y="689.5" />
              <mxPoint x="723.5" y="689.5" />
            </Array>
          </mxGeometry>
        </mxCell>
        <mxCell id="FXCXVvDxTQtwc45PbP1s-143" value="Private Subnet 10.1.2.0/24 &quot;sub-3&quot;" style="swimlane;fontStyle=0;horizontal=1;collapsible=0;startSize=28;swimlaneLine=0;swimlaneFillColor=none;fillColor=none;rounded=0;whiteSpace=wrap;html=1;absoluteArcSize=1;arcSize=12;strokeColor=#2A8838;verticalAlign=top;align=left;spacingLeft=30;spacingTop=1;dashed=0;strokeWidth=1;" parent="1" vertex="1">
          <mxGeometry x="413.5" y="639.5" width="260" height="200" as="geometry" />
        </mxCell>
        <mxCell id="FXCXVvDxTQtwc45PbP1s-144" value="" style="aspect=fixed;perimeter=ellipsePerimeter;html=1;align=center;shadow=0;dashed=0;fontColor=#4277BB;labelBackgroundColor=#ffffff;fontSize=12;spacingTop=3;image;image=img/lib/ibm/vpc/SubnetTag.svg;part=1;" parent="FXCXVvDxTQtwc45PbP1s-143" vertex="1">
          <mxGeometry width="30" height="40" as="geometry" />
        </mxCell>
        <mxCell id="FXCXVvDxTQtwc45PbP1s-147" value="Private Subnet 10.1.3.0/24 &quot;sub-4&quot;" style="swimlane;fontStyle=0;horizontal=1;collapsible=0;startSize=28;swimlaneLine=0;swimlaneFillColor=none;fillColor=none;rounded=0;whiteSpace=wrap;html=1;absoluteArcSize=1;arcSize=12;strokeColor=#2A8838;verticalAlign=top;align=left;spacingLeft=30;spacingTop=1;dashed=0;strokeWidth=1;" parent="1" vertex="1">
          <mxGeometry x="783.5" y="639.5" width="250" height="200" as="geometry" />
        </mxCell>
        <mxCell id="FXCXVvDxTQtwc45PbP1s-148" value="" style="aspect=fixed;perimeter=ellipsePerimeter;html=1;align=center;shadow=0;dashed=0;fontColor=#4277BB;labelBackgroundColor=#ffffff;fontSize=12;spacingTop=3;image;image=img/lib/ibm/vpc/SubnetTag.svg;part=1;" parent="FXCXVvDxTQtwc45PbP1s-147" vertex="1">
          <mxGeometry width="30" height="40" as="geometry" />
        </mxCell>
        <mxCell id="FXCXVvDxTQtwc45PbP1s-149" value="Public Subnet&amp;nbsp;10.1.0.0/24 &quot;sub-1&quot;" style="swimlane;fontStyle=0;horizontal=1;collapsible=0;startSize=28;swimlaneLine=0;swimlaneFillColor=none;fillColor=none;rounded=0;whiteSpace=wrap;html=1;absoluteArcSize=1;arcSize=12;strokeColor=#2A8838;verticalAlign=top;align=left;spacingLeft=30;spacingTop=1;dashed=0;strokeWidth=1;" parent="1" vertex="1">
          <mxGeometry x="413.5" y="369.5" width="260" height="220" as="geometry" />
        </mxCell>
        <mxCell id="FXCXVvDxTQtwc45PbP1s-150" value="" style="aspect=fixed;perimeter=ellipsePerimeter;html=1;align=center;shadow=0;dashed=0;fontColor=#4277BB;labelBackgroundColor=#ffffff;fontSize=12;spacingTop=3;image;image=img/lib/ibm/vpc/SubnetTag.svg;part=1;" parent="FXCXVvDxTQtwc45PbP1s-149" vertex="1">
          <mxGeometry width="30" height="40" as="geometry" />
        </mxCell>
        <mxCell id="FXCXVvDxTQtwc45PbP1s-151" value="Public Subnet 10.1.1.0/24 &quot;sub-2&quot;" style="swimlane;fontStyle=0;horizontal=1;collapsible=0;startSize=28;swimlaneLine=0;swimlaneFillColor=none;fillColor=none;rounded=0;whiteSpace=wrap;html=1;absoluteArcSize=1;arcSize=12;strokeColor=#2A8838;verticalAlign=top;align=left;spacingLeft=30;spacingTop=1;dashed=0;strokeWidth=1;" parent="1" vertex="1">
          <mxGeometry x="783.5" y="369.5" width="250" height="220" as="geometry" />
        </mxCell>
        <mxCell id="FXCXVvDxTQtwc45PbP1s-152" value="" style="aspect=fixed;perimeter=ellipsePerimeter;html=1;align=center;shadow=0;dashed=0;fontColor=#4277BB;labelBackgroundColor=#ffffff;fontSize=12;spacingTop=3;image;image=img/lib/ibm/vpc/SubnetTag.svg;part=1;" parent="FXCXVvDxTQtwc45PbP1s-151" vertex="1">
          <mxGeometry width="30" height="40" as="geometry" />
        </mxCell>
        <mxCell id="FXCXVvDxTQtwc45PbP1s-153" value="Zone 1 10.1.0.0/16" style="swimlane;fontStyle=0;horizontal=1;collapsible=0;startSize=28;swimlaneLine=0;swimlaneFillColor=none;fillColor=none;rounded=0;whiteSpace=wrap;html=1;absoluteArcSize=1;arcSize=0;strokeColor=#00882B;verticalAlign=top;align=left;spacingLeft=30;dashed=1;strokeWidth=1;container=1;" parent="1" vertex="1">
          <mxGeometry x="274" y="270" width="670" height="590" as="geometry" />
        </mxCell>
        <mxCell id="FXCXVvDxTQtwc45PbP1s-154" value="" style="aspect=fixed;perimeter=ellipsePerimeter;html=1;align=center;shadow=0;dashed=0;fontColor=#4277BB;labelBackgroundColor=#ffffff;fontSize=12;spacingTop=3;image;image=img/lib/ibm/vpc/ZoneTag.svg;part=1;" parent="FXCXVvDxTQtwc45PbP1s-153" vertex="1">
          <mxGeometry width="30" height="30" as="geometry" />
        </mxCell>
        <mxCell id="FXCXVvDxTQtwc45PbP1s-159" value="Security&lt;br&gt;Group 2" style="rounded=0;whiteSpace=wrap;html=1;absoluteArcSize=1;arcSize=0;strokeColor=#FD0000;fillColor=none;verticalAlign=top;align=center;spacingLeft=5;dashed=1;dashPattern=5 2;labelPosition=center;verticalLabelPosition=middle;strokeWidth=2;" parent="FXCXVvDxTQtwc45PbP1s-153" vertex="1">
          <mxGeometry x="150" y="440" width="600" height="110" as="geometry" />
        </mxCell>
        <mxCell id="FXCXVvDxTQtwc45PbP1s-160" value="Security&lt;br&gt;Group 1" style="rounded=0;whiteSpace=wrap;html=1;absoluteArcSize=1;arcSize=0;strokeColor=#FD0000;fillColor=none;verticalAlign=top;align=center;spacingLeft=5;dashed=1;dashPattern=5 2;labelPosition=center;verticalLabelPosition=middle;strokeWidth=2;" parent="FXCXVvDxTQtwc45PbP1s-153" vertex="1">
          <mxGeometry x="150" y="170" width="600" height="120" as="geometry" />
        </mxCell>
        <mxCell id="FXCXVvDxTQtwc45PbP1s-107" value="VSI" style="aspect=fixed;perimeter=ellipsePerimeter;html=1;align=center;shadow=0;dashed=0;fontColor=#4277BB;labelBackgroundColor=#ffffff;fontSize=12;spacingTop=3;image;image=img/lib/ibm/vpc/Instance.svg;" parent="FXCXVvDxTQtwc45PbP1s-153" vertex="1">
          <mxGeometry x="530" y="460" width="60" height="60" as="geometry" />
        </mxCell>
        <mxCell id="FXCXVvDxTQtwc45PbP1s-108" value="VSI" style="aspect=fixed;perimeter=ellipsePerimeter;html=1;align=center;shadow=0;dashed=0;fontColor=#4277BB;labelBackgroundColor=#ffffff;fontSize=12;spacingTop=3;image;image=img/lib/ibm/vpc/Instance.svg;" parent="FXCXVvDxTQtwc45PbP1s-153" vertex="1">
          <mxGeometry x="670" y="460" width="60" height="60" as="geometry" />
        </mxCell>
        <mxCell id="FXCXVvDxTQtwc45PbP1s-155" value="Classic&lt;br&gt;DC" style="swimlane;fontStyle=0;horizontal=1;collapsible=0;startSize=28;swimlaneLine=0;swimlaneFillColor=none;fillColor=none;rounded=0;whiteSpace=wrap;html=1;absoluteArcSize=1;arcSize=0;strokeColor=#00882B;verticalAlign=top;align=left;spacingLeft=30;dashed=1;strokeWidth=1;container=1;" parent="1" vertex="1">
          <mxGeometry x="1123.5" y="289.5" width="100" height="470" as="geometry" />
        </mxCell>
        <mxCell id="FXCXVvDxTQtwc45PbP1s-156" value="" style="aspect=fixed;perimeter=ellipsePerimeter;html=1;align=center;shadow=0;dashed=0;fontColor=#4277BB;labelBackgroundColor=#ffffff;fontSize=12;spacingTop=3;image;image=img/lib/ibm/vpc/ZoneTag.svg;part=1;" parent="FXCXVvDxTQtwc45PbP1s-155" vertex="1">
          <mxGeometry width="30" height="30" as="geometry" />
        </mxCell>
        <mxCell id="FXCXVvDxTQtwc45PbP1s-157" value="Classic Infrastructure" style="swimlane;fontStyle=0;horizontal=1;collapsible=0;startSize=28;swimlaneLine=0;swimlaneFillColor=none;fillColor=none;rounded=0;whiteSpace=wrap;html=1;absoluteArcSize=1;arcSize=0;strokeColor=#4376BB;verticalAlign=top;align=left;spacingLeft=30;dashed=0;strokeWidth=1;container=1;" parent="1" vertex="1">
          <mxGeometry x="1103.5" y="229.5" width="140" height="540" as="geometry" />
        </mxCell>
        <mxCell id="FXCXVvDxTQtwc45PbP1s-158" value="" style="aspect=fixed;perimeter=ellipsePerimeter;html=1;align=center;shadow=0;dashed=0;fontColor=#4277BB;labelBackgroundColor=#ffffff;fontSize=12;spacingTop=3;image;image=img/lib/ibm/vpc/ClassicInfrastructure.svg;part=1;" parent="FXCXVvDxTQtwc45PbP1s-157" vertex="1">
          <mxGeometry width="30" height="30" as="geometry" />
        </mxCell>
        <mxCell id="FXCXVvDxTQtwc45PbP1s-161" value="VPC" style="swimlane;fontStyle=0;horizontal=1;collapsible=0;startSize=28;swimlaneLine=0;swimlaneFillColor=none;fillColor=none;rounded=0;whiteSpace=wrap;html=1;absoluteArcSize=1;arcSize=12;strokeColor=#417CB9;verticalAlign=top;align=left;spacingLeft=30;spacingTop=1;dashed=0;strokeWidth=1;" parent="1" vertex="1">
          <mxGeometry x="263.5" y="229.5" width="810" height="640" as="geometry" />
        </mxCell>
        <mxCell id="FXCXVvDxTQtwc45PbP1s-162" value="" style="aspect=fixed;perimeter=ellipsePerimeter;html=1;align=center;shadow=0;dashed=0;fontColor=#4277BB;labelBackgroundColor=#ffffff;fontSize=12;spacingTop=3;image;image=img/lib/ibm/vpc/VPCTag.svg;part=1;" parent="FXCXVvDxTQtwc45PbP1s-161" vertex="1">
          <mxGeometry width="30" height="30" as="geometry" />
        </mxCell>
        <mxCell id="FXCXVvDxTQtwc45PbP1s-163" value="Region - US-West-2-Oregon" style="swimlane;fontStyle=0;horizontal=1;collapsible=0;startSize=28;swimlaneLine=0;swimlaneFillColor=none;fillColor=none;rounded=0;whiteSpace=wrap;html=1;absoluteArcSize=1;arcSize=0;strokeColor=#00882B;verticalAlign=top;align=left;spacingLeft=30;dashed=1;strokeWidth=1;container=1;dashPattern=1 1;" parent="1" vertex="1">
          <mxGeometry x="253.5" y="189.5" width="1070" height="720" as="geometry" />
        </mxCell>
        <mxCell id="FXCXVvDxTQtwc45PbP1s-164" value="" style="aspect=fixed;perimeter=ellipsePerimeter;html=1;align=center;shadow=0;dashed=0;fontColor=#4277BB;labelBackgroundColor=#ffffff;fontSize=12;spacingTop=3;image;image=img/lib/ibm/vpc/RegionTag.svg;part=1;" parent="FXCXVvDxTQtwc45PbP1s-163" vertex="1">
          <mxGeometry width="30" height="30" as="geometry" />
        </mxCell>
        <mxCell id="FXCXVvDxTQtwc45PbP1s-167" value="" style="swimlane;fontStyle=0;horizontal=1;collapsible=0;startSize=28;swimlaneLine=0;swimlaneFillColor=none;fillColor=none;rounded=0;whiteSpace=wrap;html=1;absoluteArcSize=1;arcSize=0;strokeColor=#4376BB;verticalAlign=top;align=left;spacingLeft=5;dashed=0;strokeWidth=1;container=1;" parent="1" vertex="1">
          <mxGeometry x="123.5" y="150" width="1306.5" height="799.5" as="geometry" />
        </mxCell>
        <mxCell id="FXCXVvDxTQtwc45PbP1s-168" value="Public&lt;br&gt;Network" style="aspect=fixed;perimeter=ellipsePerimeter;html=1;align=left;shadow=0;dashed=0;labelBackgroundColor=none;fontSize=12;spacingTop=0;image;image=img/lib/ibm/vpc/PublicTag.svg;part=1;labelPosition=right;verticalLabelPosition=middle;verticalAlign=middle;" parent="FXCXVvDxTQtwc45PbP1s-167" vertex="1">
          <mxGeometry width="30" height="30" as="geometry" />
        </mxCell>
        <mxCell id="FXCXVvDxTQtwc45PbP1s-170" value="AWS Cloud" style="swimlane;fontStyle=0;horizontal=1;collapsible=0;startSize=28;swimlaneLine=0;swimlaneFillColor=none;fillColor=none;rounded=0;whiteSpace=wrap;html=1;absoluteArcSize=1;arcSize=12;strokeColor=#417CB9;verticalAlign=top;align=left;spacingLeft=30;spacingTop=1;dashed=0;strokeWidth=1;" parent="FXCXVvDxTQtwc45PbP1s-167" vertex="1">
          <mxGeometry x="120" width="1190" height="800" as="geometry" />
        </mxCell>
        <mxCell id="FXCXVvDxTQtwc45PbP1s-171" value="" style="aspect=fixed;perimeter=ellipsePerimeter;html=1;align=center;shadow=0;dashed=0;fontColor=#4277BB;labelBackgroundColor=#ffffff;fontSize=12;spacingTop=3;image;image=img/lib/ibm/vpc/CloudTag.svg;part=1;" parent="FXCXVvDxTQtwc45PbP1s-170" vertex="1">
          <mxGeometry width="30" height="30" as="geometry" />
        </mxCell>
        <mxCell id="8mZ1clYOEjptnx82fnUx-3" value="* Each VSI&lt;br&gt;has one or more&lt;br&gt;interfaces in&lt;br&gt;same or other&lt;br&gt;subnet and&lt;br&gt;each interface&lt;br&gt;is in one or&lt;br&gt;more security&lt;br&gt;groups." style="text;html=1;resizable=0;points=[];autosize=1;align=center;verticalAlign=top;spacingTop=-4;" parent="FXCXVvDxTQtwc45PbP1s-167" vertex="1">
          <mxGeometry x="9.5" y="620.5" width="100" height="120" as="geometry" />
        </mxCell>
        <mxCell id="8mZ1clYOEjptnx82fnUx-2" value="* Diagram&lt;br&gt;shows primary&lt;br&gt;interface for&lt;br&gt;each VSI in the&lt;br&gt;subnet and&lt;br&gt;security group&lt;br&gt;shown." style="text;html=1;resizable=0;points=[];autosize=1;align=center;verticalAlign=top;spacingTop=-4;" parent="FXCXVvDxTQtwc45PbP1s-167" vertex="1">
          <mxGeometry x="9.5" y="500.5" width="100" height="90" as="geometry" />
        </mxCell>
        <mxCell id="HwulmQ-oOyahczQ6ZAeN-1" style="edgeStyle=orthogonalEdgeStyle;rounded=0;orthogonalLoop=1;jettySize=auto;html=1;endArrow=block;endFill=1;" parent="1" target="FXCXVvDxTQtwc45PbP1s-96" edge="1">
          <mxGeometry relative="1" as="geometry">
            <mxPoint x="413.5" y="409.5" as="sourcePoint" />
            <Array as="points">
              <mxPoint x="413.5" y="409.5" />
            </Array>
          </mxGeometry>
        </mxCell>
        <mxCell id="HwulmQ-oOyahczQ6ZAeN-2" style="edgeStyle=orthogonalEdgeStyle;rounded=0;orthogonalLoop=1;jettySize=auto;html=1;endArrow=block;endFill=1;startArrow=block;startFill=1;" parent="1" source="FXCXVvDxTQtwc45PbP1s-97" edge="1">
          <mxGeometry relative="1" as="geometry">
            <mxPoint x="413.5" y="569.5" as="targetPoint" />
          </mxGeometry>
        </mxCell>
        <mxCell id="HwulmQ-oOyahczQ6ZAeN-8" style="edgeStyle=elbowEdgeStyle;rounded=0;orthogonalLoop=1;jettySize=auto;html=1;endArrow=block;endFill=1;startArrow=block;startFill=1;" parent="1" source="FXCXVvDxTQtwc45PbP1s-113" edge="1">
          <mxGeometry relative="1" as="geometry">
            <mxPoint x="1173.5" y="769.5" as="targetPoint" />
          </mxGeometry>
        </mxCell>
        <mxCell id="HwulmQ-oOyahczQ6ZAeN-9" style="edgeStyle=orthogonalEdgeStyle;rounded=0;orthogonalLoop=1;jettySize=auto;html=1;endArrow=block;endFill=1;startArrow=block;startFill=1;" parent="1" source="FXCXVvDxTQtwc45PbP1s-113" edge="1">
          <mxGeometry relative="1" as="geometry">
            <mxPoint x="1073.5" y="829.5" as="targetPoint" />
          </mxGeometry>
        </mxCell>
        <mxCell id="FXCXVvDxTQtwc45PbP1s-115" value="Icons" style="" parent="0" />
        <mxCell id="FXCXVvDxTQtwc45PbP1s-93" value="User" style="aspect=fixed;perimeter=ellipsePerimeter;html=1;align=center;shadow=0;dashed=0;fontColor=#4277BB;labelBackgroundColor=#ffffff;fontSize=12;spacingTop=3;image;image=img/lib/ibm/users/user.svg;" parent="FXCXVvDxTQtwc45PbP1s-115" vertex="1">
          <mxGeometry x="153.5" y="219.5" width="60" height="60" as="geometry" />
        </mxCell>
        <mxCell id="FXCXVvDxTQtwc45PbP1s-94" value="Internet" style="aspect=fixed;perimeter=ellipsePerimeter;html=1;align=center;shadow=0;dashed=0;fontColor=#4277BB;labelBackgroundColor=#ffffff;fontSize=12;spacingTop=3;image;image=img/lib/ibm/vpc/Internet.svg;" parent="FXCXVvDxTQtwc45PbP1s-115" vertex="1">
          <mxGeometry x="153.5" y="379.5" width="60" height="60" as="geometry" />
        </mxCell>
        <mxCell id="FXCXVvDxTQtwc45PbP1s-95" value="VPN&lt;br&gt;Connection" style="aspect=fixed;perimeter=ellipsePerimeter;html=1;align=center;shadow=0;dashed=0;fontColor=#4277BB;labelBackgroundColor=#ffffff;fontSize=12;spacingTop=3;image;image=img/lib/ibm/vpc/VPNConnection.svg;" parent="FXCXVvDxTQtwc45PbP1s-115" vertex="1">
          <mxGeometry x="153.5" y="539.5" width="60" height="60" as="geometry" />
        </mxCell>
        <mxCell id="FXCXVvDxTQtwc45PbP1s-96" value="Public&lt;br&gt;Gateway" style="aspect=fixed;perimeter=ellipsePerimeter;html=1;align=center;shadow=0;dashed=0;fontColor=#4277BB;labelBackgroundColor=#ffffff;fontSize=12;spacingTop=3;image;image=img/lib/ibm/vpc/PublicGateway.svg;" parent="FXCXVvDxTQtwc45PbP1s-115" vertex="1">
          <mxGeometry x="288.5" y="379.5" width="60" height="60" as="geometry" />
        </mxCell>
        <mxCell id="FXCXVvDxTQtwc45PbP1s-97" value="VPN&lt;br&gt;Gateway" style="aspect=fixed;perimeter=ellipsePerimeter;html=1;align=center;shadow=0;dashed=0;fontColor=#4277BB;labelBackgroundColor=#ffffff;fontSize=12;spacingTop=3;image;image=img/lib/ibm/vpc/VPNGateway.svg;" parent="FXCXVvDxTQtwc45PbP1s-115" vertex="1">
          <mxGeometry x="288.5" y="539.5" width="60" height="60" as="geometry" />
        </mxCell>
        <mxCell id="FXCXVvDxTQtwc45PbP1s-103" value="Public&lt;br&gt;Load&lt;br&gt;Balancer" style="aspect=fixed;perimeter=ellipsePerimeter;html=1;align=center;shadow=0;dashed=0;fontColor=#4277BB;labelBackgroundColor=#ffffff;fontSize=12;spacingTop=3;image;image=img/lib/ibm/vpc/LoadBalancer.svg;labelPosition=center;verticalLabelPosition=top;verticalAlign=bottom;" parent="FXCXVvDxTQtwc45PbP1s-115" vertex="1">
          <mxGeometry x="693.5" y="278.5" width="60" height="60" as="geometry" />
        </mxCell>
        <mxCell id="FXCXVvDxTQtwc45PbP1s-104" value="Private &lt;br&gt;Load Balancer" style="aspect=fixed;perimeter=ellipsePerimeter;html=1;align=left;shadow=0;dashed=0;fontColor=#4277BB;labelBackgroundColor=#ffffff;fontSize=12;spacingTop=3;image;image=img/lib/ibm/vpc/LoadBalancer.svg;labelPosition=right;verticalLabelPosition=middle;verticalAlign=middle;" parent="FXCXVvDxTQtwc45PbP1s-115" vertex="1">
          <mxGeometry x="693.5" y="588.5" width="60" height="60" as="geometry" />
        </mxCell>
        <mxCell id="FXCXVvDxTQtwc45PbP1s-105" value="VSI" style="aspect=fixed;perimeter=ellipsePerimeter;html=1;align=center;shadow=0;dashed=0;fontColor=#4277BB;labelBackgroundColor=#ffffff;fontSize=12;spacingTop=3;image;image=img/lib/ibm/vpc/Instance.svg;" parent="FXCXVvDxTQtwc45PbP1s-115" vertex="1">
          <mxGeometry x="493.5" y="729.5" width="60" height="60" as="geometry" />
        </mxCell>
        <mxCell id="FXCXVvDxTQtwc45PbP1s-106" value="VSI" style="aspect=fixed;perimeter=ellipsePerimeter;html=1;align=center;shadow=0;dashed=0;fontColor=#4277BB;labelBackgroundColor=#ffffff;fontSize=12;spacingTop=3;image;image=img/lib/ibm/vpc/Instance.svg;" parent="FXCXVvDxTQtwc45PbP1s-115" vertex="1">
          <mxGeometry x="593.5" y="729.5" width="60" height="60" as="geometry" />
        </mxCell>
        <mxCell id="FXCXVvDxTQtwc45PbP1s-109" value="Gateway&#xa;Appliance" style="shape=image;verticalLabelPosition=bottom;labelBackgroundColor=#ffffff;verticalAlign=top;aspect=fixed;imageAspect=0;image=data:image/svg+xml,PHN2ZyB4bWxucz0iaHR0cDovL3d3dy53My5vcmcvMjAwMC9zdmciIHhtbG5zOnhsaW5rPSJodHRwOi8vd3d3LnczLm9yZy8xOTk5L3hsaW5rIiB3aWR0aD0iMTAwLjAzMiIgaGVpZ2h0PSIxMDAuMDMyIiB2aWV3Qm94PSIwIDAgNzUgNzUiIGZpbGw9Im5vbmUiIGZpbGwtcnVsZT0iZXZlbm9kZCIgb3ZlcmZsb3c9InZpc2libGUiIHN0cm9rZS1saW5lY2FwPSJzcXVhcmUiIHN0cm9rZS1taXRlcmxpbWl0PSIzIiBjb2xvci1pbnRlcnBvbGF0aW9uLWZpbHRlcnM9InNSR0IiPjxkZWZzPjxwYXRoIGQ9Ik0xLjc1LTIuNzZMMC0uNzZsLTEuNzUtMiIgaWQ9IkEiLz48L2RlZnM+PGcgZmlsbD0iIzhkYzUzZiI+PG1hcmtlciBvdmVyZmxvdz0idmlzaWJsZSIgbWFya2VyVW5pdHM9InN0cm9rZVdpZHRoIj48dXNlIHhsaW5rOmhyZWY9IiNBIiBmaWxsPSJub25lIiBzdHJva2U9IiM4ZGM1M2YiIHN0cm9rZS1taXRlcmxpbWl0PSIxMCIgdHJhbnNmb3JtPSJyb3RhdGUoMzE1KSIgc3Ryb2tlLWxpbmVjYXA9InJvdW5kIi8+PC9tYXJrZXI+PGNpcmNsZSByPSIzNy41IiBjeD0iMzcuNSIgY3k9IjM3LjUiIGNvbG9yLWludGVycG9sYXRpb24tZmlsdGVycz0ic1JHQiIvPjwvZz48cGF0aCBkPSJNMTQuNTg3IDYzLjQ3MnYtMy43Nmg2LjAxOHYtMi4xMDdoLTYuMDE4VjQwLjgwOGgyMi4xdjkuNzZsLTQuMDUzLTQuMjE4Yy0uNzQ4LS42NzYtMS40MzItLjc5NS0yLjE0My0uMjQtLjYwMi41MjMtLjQ2IDEuNzcuMDU1IDIuMzRsNy42MzUgNy4xMSA3LjQ3LTcuMTFjLjc3NS0uODIzLjc1Mi0xLjY5OC4xOTQtMi4zNC0uNTctLjUyNi0xLjQ5OC0uNDk3LTIuMzI3LjI0bC0zLjgyIDQuMjE4di05Ljc2SDYxLjI5djE2Ljc5NmgtNi4zNDd2Mi4xMDdoNi4zNDd2My43NmgtOS42NDNjMC0xLjAwNC0uNTk1LTEuNTYtMS4zNi0xLjU2LS43MzYgMC0xLjM2LjY5Mi0xLjM2IDEuNTZoLTEuNTd2LTMuNzZoNS4zdi0yLjEwN0gzOS40MXYyLjEwN2g1LjEzdjMuNzZoLTguNzVjMC0uOTc4LS42MzMtMS41Ni0xLjQ3LTEuNTYtLjczNSAwLTEuNDcuNzI4LTEuNDcgMS41NkgzMS4zNXYtMy43Nmg1LjQ5di0yLjEwN2gtMTMuNTh2Mi4xMDdoNS4zOTN2My43NmgtOC45YzAtMS4wNi0uNS0xLjU2LTEuMjg1LTEuNTYtLjgyIDAtMS4yODUuNjUtMS4yODUgMS41NnptMTIuNjI3LTI0LjMxOGMtMy4wNDIgMC01LjgzNy0yLjY5Mi03LjUyLTUuMjA4LTEuNjMzLTIuMzQtMi4wMjMtNi44OS0uNjY2LTExLjY2NCAxLjIzNC00LjMxNSA0LjYxNC02LjExIDEwLjA2NC02LjA3Ni0uMTUtMy40IDIuMDQyLTcuMzIgNS4yMy05LjE2NiAzLjA4My0xLjk0NyA2Ljc1NS0yLjk0IDExLjk0IDEuMjU0IDMuMDI0IDIuNjYgMy41MzIgNS4wNyA0LjE4MyA5LjA0MyA1LjI0NSAyLjAyNSA1LjgzIDguMzk3IDUuMjY4IDEyLjkxLS42OCA0Ljk1NC00LjI4NiA4Ljg1Ni04LjgyMiA4Ljg1NnoiIGZpbGw9IiNmZmYiLz48L3N2Zz4=;" parent="FXCXVvDxTQtwc45PbP1s-115" vertex="1">
          <mxGeometry x="1143.5" y="339" width="60" height="60" as="geometry" />
        </mxCell>
        <mxCell id="FXCXVvDxTQtwc45PbP1s-110" value="Classic&lt;br&gt;Load&lt;br&gt;Balancer" style="aspect=fixed;perimeter=ellipsePerimeter;html=1;align=center;shadow=0;dashed=0;fontColor=#4277BB;labelBackgroundColor=#ffffff;fontSize=12;spacingTop=3;image;image=img/lib/ibm/vpc/LoadBalancer.svg;" parent="FXCXVvDxTQtwc45PbP1s-115" vertex="1">
          <mxGeometry x="1143.5" y="460" width="60" height="60" as="geometry" />
        </mxCell>
        <mxCell id="FXCXVvDxTQtwc45PbP1s-111" value="Classic VSI" style="aspect=fixed;perimeter=ellipsePerimeter;html=1;align=center;shadow=0;dashed=0;fontColor=#4277BB;labelBackgroundColor=#ffffff;fontSize=12;spacingTop=3;image;image=img/lib/ibm/vpc/Instance.svg;" parent="FXCXVvDxTQtwc45PbP1s-115" vertex="1">
          <mxGeometry x="1143.5" y="570" width="60" height="60" as="geometry" />
        </mxCell>
        <mxCell id="FXCXVvDxTQtwc45PbP1s-112" value="Bare Metal" style="shape=image;verticalLabelPosition=bottom;labelBackgroundColor=white;verticalAlign=top;aspect=fixed;imageAspect=0;image=data:image/svg+xml,PHN2ZyB4bWxucz0iaHR0cDovL3d3dy53My5vcmcvMjAwMC9zdmciIHdpZHRoPSIxMDAuMDMyIiBoZWlnaHQ9IjEwMC4wMzIiIHZpZXdCb3g9IjAgMCA3NSA3NSIgZmlsbD0ibm9uZSIgZmlsbC1ydWxlPSJldmVub2RkIiBvdmVyZmxvdz0idmlzaWJsZSIgc3Ryb2tlLWxpbmVjYXA9InNxdWFyZSIgc3Ryb2tlLW1pdGVybGltaXQ9IjMiIGNvbG9yLWludGVycG9sYXRpb24tZmlsdGVycz0ic1JHQiI+PHN0eWxlPjwhW0NEQVRBWy5Ce2NvbG9yLWludGVycG9sYXRpb24tZmlsdGVyczpzUkdCfV1dPjwvc3R5bGU+PGNpcmNsZSByPSIzNy41IiBjeD0iMzcuNSIgY3k9IjM3LjUiIGZpbGw9IiM4ZGM1M2YiIGNsYXNzPSJCIi8+PHBhdGggZD0iTTE5LjA5NiA0OS43OTN2MTIuNzZoMzcuNTl2LTEyLjc2em0xMS4wOTIgMy4zMjhhMy4wNTMgMy4wNTMgMCAwIDEgMy4wNTMgMy4wNTMgMy4wNTMgMy4wNTMgMCAxIDEtNi4xMDUgMCAzLjA1MyAzLjA1MyAwIDAgMSAzLjA1My0zLjA1M3pNMTkuMDk2IDEzLjg3djEyLjc2aDM3LjU5VjEzLjg3em0xMS4wOTIgMy4zMjhhMy4wNTMgMy4wNTMgMCAwIDEgMy4wNTMgMy4wNTMgMy4wNTMgMy4wNTMgMCAwIDEtNi4xMDUgMCAzLjA1MyAzLjA1MyAwIDAgMSAzLjA1My0zLjA1M3pNMTkuMDk2IDMxLjgzMnYxMi43NmgzNy41OXYtMTIuNzZ6bTExLjA5MiAzLjMyOGEzLjA1MyAzLjA1MyAwIDAgMSAzLjA1MyAzLjA1MyAzLjA1MyAzLjA1MyAwIDAgMS02LjEwNSAwIDMuMDUzIDMuMDUzIDAgMCAxIDMuMDUzLTMuMDUzeiIgZmlsbD0iI2ZmZiIgcGFpbnQtb3JkZXI9Im5vcm1hbCIgY2xhc3M9IkIiLz48L3N2Zz4=;shadow=0;dashed=0;fontColor=#4277BB;spacingTop=3;" parent="FXCXVvDxTQtwc45PbP1s-115" vertex="1">
          <mxGeometry x="1143.5" y="669.5" width="60" height="60" as="geometry" />
        </mxCell>
        <mxCell id="FXCXVvDxTQtwc45PbP1s-113" value="Implicit&lt;br&gt;Route" style="aspect=fixed;perimeter=ellipsePerimeter;html=1;align=center;shadow=0;dashed=0;fontColor=#4277BB;labelBackgroundColor=#ffffff;fontSize=12;spacingTop=3;image;image=img/lib/ibm/vpc/Router.svg;" parent="FXCXVvDxTQtwc45PbP1s-115" vertex="1">
          <mxGeometry x="1143" y="799.5" width="60" height="60" as="geometry" />
        </mxCell>
        <mxCell id="FXCXVvDxTQtwc45PbP1s-172" value="Zone 2 10.20.0.0/16" style="swimlane;fontStyle=0;horizontal=1;collapsible=0;startSize=28;swimlaneLine=0;swimlaneFillColor=none;fillColor=none;rounded=0;whiteSpace=wrap;html=1;absoluteArcSize=1;arcSize=0;strokeColor=#00882B;verticalAlign=top;align=left;spacingLeft=30;dashed=1;strokeWidth=1;container=1;" parent="FXCXVvDxTQtwc45PbP1s-115" vertex="1">
          <mxGeometry x="773.5" y="269.5" width="280" height="590" as="geometry" />
        </mxCell>
        <mxCell id="FXCXVvDxTQtwc45PbP1s-173" value="" style="aspect=fixed;perimeter=ellipsePerimeter;html=1;align=center;shadow=0;dashed=0;fontColor=#4277BB;labelBackgroundColor=#ffffff;fontSize=12;spacingTop=3;image;image=img/lib/ibm/vpc/ZoneTag.svg;part=1;" parent="FXCXVvDxTQtwc45PbP1s-172" vertex="1">
          <mxGeometry width="30" height="30" as="geometry" />
        </mxCell>
        <mxCell id="rB03u_PqxVq-NjBMCzcj-3" value="Amazon EC2" style="sketch=0;outlineConnect=0;fontColor=#232F3E;gradientColor=none;strokeColor=#ffffff;fillColor=#232F3E;dashed=0;verticalLabelPosition=middle;verticalAlign=bottom;align=center;html=1;whiteSpace=wrap;fontSize=10;fontStyle=1;spacing=3;shape=mxgraph.aws4.productIcon;prIcon=mxgraph.aws4.ec2;" vertex="1" parent="FXCXVvDxTQtwc45PbP1s-172">
          <mxGeometry x="90.5" y="180" width="80" height="100" as="geometry" />
        </mxCell>
        <mxCell id="rB03u_PqxVq-NjBMCzcj-4" value="" style="shape=image;html=1;verticalAlign=top;verticalLabelPosition=bottom;labelBackgroundColor=#ffffff;imageAspect=0;aspect=fixed;image=https://cdn1.iconfinder.com/data/icons/Futurosoft%20Icons%200.5.2/128x128/apps/fedora.png" vertex="1" parent="FXCXVvDxTQtwc45PbP1s-172">
          <mxGeometry x="116.5" y="200.5" width="39.5" height="39.5" as="geometry" />
        </mxCell>
      </root>
    </mxGraphModel>
  </diagram>
</mxfile>
